<svg width="35" height="35" viewBox="0 0 35 35" fill="none" xmlns="http://www.w3.org/2000/svg">
<g clip-path="url(#clip0_129_428)">
<path d="M10.9365 6.73779V13.3784C10.9365 14.7597 12.1053 15.9018 13.5131 15.9018H16.2224L19.1709 18.7706C19.3303 18.9034 19.5162 18.9831 19.7021 18.9831C19.8084 18.9831 19.9146 18.9565 19.9943 18.93C20.2865 18.7972 20.4724 18.5315 20.4724 18.2128V15.9018H21.3756C22.7834 15.9018 23.9256 14.7597 23.9256 13.3784V6.73779C23.9256 5.35654 22.7834 4.21436 21.3756 4.21436H13.5131C12.1053 4.21436 10.9365 5.35654 10.9365 6.73779ZM11.999 6.73779C11.999 5.94092 12.6896 5.27685 13.5131 5.27685H21.4021C22.2256 5.27685 22.8896 5.94092 22.8896 6.73779V13.3784C22.8896 14.1753 22.2256 14.8393 21.4021 14.8393H20.2068C19.7818 14.8393 19.4365 15.1847 19.4365 15.6097V17.5487L16.8865 15.0518C16.7537 14.919 16.5412 14.8393 16.3553 14.8393H13.5131C12.6896 14.8393 11.999 14.1753 11.999 13.3784V6.73779Z" fill="#003449"/>
<path d="M9.87412 3.94873H8.54599V5.01123H9.87412V3.94873Z" fill="#003449"/>
<path d="M5.62403 3.94873H4.2959V5.01123H5.62403V3.94873Z" fill="#003449"/>
<path d="M7.74914 3.94873H6.42101V5.01123H7.74914V3.94873Z" fill="#003449"/>
<path d="M4.0571 8.72998H4.56179V10.1644C4.56179 10.4565 4.72117 10.7222 5.01335 10.8284C5.09304 10.855 5.19929 10.8815 5.27898 10.8815C5.46492 10.8815 5.65085 10.8019 5.78367 10.669L7.66961 8.72998H9.34304V7.66748H7.51023C7.32429 7.66748 7.13836 7.74717 7.00554 7.87998L5.62429 9.2878V8.35811C5.62429 7.95967 5.30554 7.64092 4.9071 7.64092H4.0571C3.60554 7.64092 3.23367 7.24248 3.23367 6.76436V2.16904C3.23367 1.69092 3.60554 1.29248 4.0571 1.29248H10.0337C10.5384 1.29248 10.9368 1.69092 10.9368 2.16904V3.15186H11.9993V2.16904C11.9993 1.10654 11.1227 0.22998 10.0337 0.22998H4.0571C3.02117 0.22998 2.17117 1.10654 2.17117 2.16904V6.81748C2.17117 7.85342 3.02117 8.72998 4.0571 8.72998Z" fill="#003449"/>
<path d="M15.7443 9.68648L16.7271 9.28804L16.5412 8.78335C16.4615 8.59742 16.435 8.38492 16.4881 8.19898C16.5678 7.72085 16.9662 7.32242 17.4709 7.26929C17.7896 7.24273 18.1084 7.32242 18.3475 7.53492C18.5865 7.74742 18.7193 8.06617 18.7193 8.38492C18.7193 8.51773 18.4803 8.8896 17.8428 9.36773C17.3381 9.7396 17.0459 10.3505 17.0459 10.988V11.6521H18.1084V10.988C18.1084 10.6959 18.2412 10.4037 18.4803 10.2177C19.3303 9.58023 19.7818 8.94273 19.7818 8.38492C19.7818 7.77398 19.5162 7.16304 19.0381 6.7646C18.56 6.3396 17.949 6.15366 17.3115 6.23335C16.3287 6.3396 15.5584 7.10992 15.4256 8.06617C15.3725 8.4646 15.399 8.86304 15.5584 9.20835L15.7443 9.68648Z" fill="#003449"/>
<path d="M17.4178 12.2622C16.9928 12.2622 16.6741 12.6075 16.6741 13.006C16.6741 13.4044 17.0194 13.7497 17.4178 13.7497C17.8163 13.7497 18.1616 13.4044 18.1616 13.006C18.1616 12.6075 17.8428 12.2622 17.4178 12.2622ZM17.4178 13.3247C17.2585 13.3247 17.0991 13.1919 17.0991 13.006C17.0991 12.82 17.2319 12.6872 17.4178 12.6872C17.5772 12.6872 17.7366 12.82 17.7366 13.006C17.7366 13.1919 17.6038 13.3247 17.4178 13.3247Z" fill="#003449"/>
<path d="M29.6632 29.8205L28.7069 30.2455L30.035 33.1674H4.64129L6.0491 30.2455L5.09285 29.7939L3.31316 33.4861C3.23348 33.6455 3.23348 33.858 3.33973 33.9908C3.44598 34.1502 3.60535 34.2299 3.79129 34.2299H30.8053C30.9913 34.2299 31.1507 34.1502 31.2569 33.9908C31.3632 33.8314 31.3632 33.6455 31.2835 33.4861L29.6632 29.8205Z" fill="#003449"/>
<path d="M9.0507 21.2144L8.17414 22.7284L9.10382 23.2597L9.82101 22.0112H25.2007L25.7585 23.2331L26.7148 22.8081L26.0241 21.2675C25.9445 21.0815 25.7585 20.9487 25.546 20.9487H9.50226C9.31632 20.9487 9.13039 21.055 9.0507 21.2144Z" fill="#003449"/>
<path d="M5.7571 19.6206C7.72273 19.6206 9.34304 18.0003 9.34304 16.0347C9.34304 14.069 7.72273 12.4487 5.7571 12.4487C3.79148 12.4487 2.17117 14.069 2.17117 16.0347C2.17117 18.0003 3.79148 19.6206 5.7571 19.6206ZM5.7571 13.5112C7.13835 13.5112 8.28054 14.6534 8.28054 16.0347C8.28054 17.4159 7.13835 18.5581 5.7571 18.5581C4.37585 18.5581 3.23367 17.4159 3.23367 16.0347C3.23367 14.6534 4.37585 13.5112 5.7571 13.5112Z" fill="#003449"/>
<path d="M1.37414 25.9953C1.48039 22.6484 2.17101 21.2141 3.65851 21.2141C3.65851 21.2141 3.65851 21.2141 3.68508 21.2141C5.49133 21.2406 7.61633 24.8266 8.25383 26.2344C8.33351 26.4203 8.51945 26.5266 8.73195 26.5266H12.2648C12.8757 26.5266 13.3538 27.1109 13.1413 27.7484C13.0085 28.1203 12.6366 28.3859 12.2382 28.3859H7.69601C7.3507 28.3859 7.03195 28.2266 6.87258 27.9344C6.87258 27.9078 6.84601 27.9078 6.84601 27.8813L4.48195 24.5344L3.60539 25.1453L5.96945 28.4656C6.34133 29.0766 7.00539 29.4219 7.69601 29.4219H12.2648C13.5132 29.4219 14.496 28.2797 14.2038 26.9781C13.9913 26.0484 13.1413 25.4375 12.2116 25.4375H9.10382C8.46632 24.1891 6.23508 20.1516 3.71164 20.125H3.68508C0.497575 20.1516 0.364763 24.4016 0.311638 25.9953V29.7141C0.311638 30.0063 0.5507 30.2453 0.842888 30.2453H2.96789V29.1828H1.37414V25.9953Z" fill="#003449"/>
<path d="M28.8664 19.6206C30.832 19.6206 32.4523 18.0003 32.4523 16.0347C32.4523 14.069 30.832 12.4487 28.8664 12.4487C26.9007 12.4487 25.2804 14.069 25.2804 16.0347C25.2804 18.0003 26.9007 19.6206 28.8664 19.6206ZM28.8664 13.5112C30.2476 13.5112 31.3898 14.6534 31.3898 16.0347C31.3898 17.4159 30.2476 18.5581 28.8664 18.5581C27.4851 18.5581 26.3429 17.4159 26.3429 16.0347C26.3429 14.6534 27.4851 13.5112 28.8664 13.5112Z" fill="#003449"/>
<path d="M34.3116 25.942C34.2585 24.3748 34.1257 20.2045 31.0179 20.1514C28.521 20.2045 26.2898 24.2154 25.6523 25.4639H22.3585C21.1101 25.4639 20.1273 26.6061 20.4194 27.9076C20.6319 28.8373 21.4819 29.4482 22.4116 29.4482H26.9273C27.6179 29.4482 28.2819 29.0764 28.6538 28.492L31.0179 25.1717L30.1413 24.5607L27.7773 27.9076C27.7773 27.9342 27.7507 27.9342 27.7507 27.9607C27.5913 28.2529 27.2726 28.4123 26.9273 28.4123L22.3585 28.3857C21.7476 28.3857 21.2694 27.8014 21.4819 27.1639C21.6148 26.792 21.9866 26.5264 22.3851 26.5264H25.8913C26.1038 26.5264 26.2898 26.4201 26.3694 26.2342C26.9804 24.9592 29.1319 21.2404 30.9382 21.2139C30.9382 21.2139 30.9382 21.2139 30.9648 21.2139C32.4788 21.2139 33.1429 22.6482 33.2491 25.9951V29.1826H31.6554V30.2451H33.7804C34.0726 30.2451 34.3116 30.0061 34.3116 29.7139V25.942Z" fill="#003449"/>
</g>
<defs>
<clipPath id="clip0_129_428">
<rect width="34" height="34" fill="white" transform="translate(0.311638 0.22998)"/>
</clipPath>
</defs>
</svg>
