<svg width="47" height="47" viewBox="0 0 47 47" fill="none" xmlns="http://www.w3.org/2000/svg">
<g clip-path="url(#clip0_129_345)">
<path d="M10.3627 37.1621C9.75022 37.1621 9.28189 37.6307 9.28189 38.2434C9.28189 38.8561 9.75022 39.3246 10.3627 39.3246C10.9751 39.3246 11.4434 38.8561 11.4434 38.2434C11.4434 37.6667 10.9751 37.1621 10.3627 37.1621ZM10.3627 38.6038C10.1825 38.6038 10.0024 38.4596 10.0024 38.2434C10.0024 38.0271 10.1465 37.883 10.3627 37.883C10.5788 37.883 10.7229 38.0271 10.7229 38.2434C10.7229 38.4596 10.5428 38.6038 10.3627 38.6038Z" fill="white"/>
<path d="M29.6629 41.4857C29.1228 41.5937 28.9067 41.2695 28.8347 41.1254C28.8347 41.0894 28.8347 41.0894 28.7987 41.0534L26.3141 35.3613C25.846 34.3886 24.9097 34.0284 24.1896 33.9563C23.9375 31.8668 22.6052 30.642 20.4446 30.642C19.6164 30.642 18.6442 30.642 17.744 30.642V28.1202H22.065V26.6792H19.6164C20.3366 26.6792 21.0208 26.3189 21.4169 25.7065C21.813 25.094 21.885 24.3015 21.5609 23.581C21.2368 22.8244 20.4806 22.3561 19.6164 22.3561H16.3396C15.6554 21.0231 13.5309 17.3485 11.1183 17.3125H11.0823C8.48968 17.3125 7.91353 20.0144 7.7695 21.9238V21.8878C7.7695 21.8517 7.7695 21.8517 7.7695 21.8157C7.58945 21.1312 6.79726 19.8343 5.14085 19.8343H0.495697V21.2753H5.10484C5.96905 21.2753 6.25712 22.0319 6.32914 22.176L7.73349 30.0656C4.27663 31.1824 1.75601 34.4247 1.75601 38.2434C1.75601 42.9987 5.60896 46.8535 10.3621 46.8535C15.1153 46.8535 18.9683 42.9987 18.9683 38.2434C18.9683 37.2347 18.7882 36.2259 18.4641 35.3253H22.8212V40.4409C21.3809 40.7652 20.3006 42.0621 20.3006 43.6112C20.3006 45.4125 21.741 46.8535 23.5414 46.8535C25.3418 46.8535 26.7822 45.4125 26.7822 43.6112C26.7822 42.0621 25.7019 40.7652 24.2616 40.4409V35.3973C24.5136 35.4694 24.8737 35.5775 25.0178 35.9377L27.5024 41.5938C27.6824 42.0981 28.3306 42.9267 29.4829 42.9267C29.6629 42.9267 29.843 42.8907 30.059 42.8546C30.095 42.8546 30.167 42.8186 30.203 42.8186L32.3636 41.918L31.8234 40.585L29.6629 41.4857ZM11.1543 18.6454C12.6307 18.6454 14.5392 21.5635 15.4034 23.3648C15.5114 23.617 15.7635 23.7971 16.0515 23.7971H19.6524C19.9405 23.7971 20.1926 23.9412 20.3006 24.1574C20.4446 24.5176 20.3366 24.7698 20.2646 24.8779C20.1206 25.094 19.9045 25.2021 19.6524 25.2021H15.4754C15.1873 25.2021 14.9353 25.058 14.7912 24.8058C14.7912 24.7698 14.7552 24.7698 14.7552 24.7338L12.2346 21.1312L11.0463 21.9598L13.5669 25.5263C13.963 26.1748 14.7192 26.6071 15.4754 26.6071H9.13784V23.0406C9.24586 19.9784 9.822 18.6454 11.1543 18.6454ZM8.84976 28.1202H16.3396V30.642C15.4754 30.642 14.8993 30.642 14.8633 30.642H14.3591C13.1708 29.9935 11.8025 29.6333 10.3261 29.6333C9.89402 29.6333 9.49792 29.6693 9.10183 29.7053L8.84976 28.1202ZM10.3621 45.4125C6.40116 45.4125 3.19637 42.2062 3.19637 38.2434C3.19637 34.2806 6.40116 31.0743 10.3621 31.0743C14.3231 31.0743 17.5279 34.2806 17.5279 38.2434C17.5279 42.2062 14.3231 45.4125 10.3621 45.4125ZM16.3396 32.083H17.78C18.6802 32.083 19.6164 32.083 20.4446 32.083C21.813 32.083 22.5331 32.6594 22.7492 33.8843H17.78C17.3839 33.2358 16.8798 32.6234 16.3396 32.083ZM25.3418 43.6112C25.3418 44.6199 24.5496 45.4125 23.5414 45.4125C22.5331 45.4125 21.741 44.6199 21.741 43.6112C21.741 42.6025 22.5331 41.8099 23.5414 41.8099C24.5496 41.8099 25.3418 42.6025 25.3418 43.6112Z" fill="white"/>
<path d="M10.2182 32.083C6.83336 32.083 4.09668 34.821 4.09668 38.2074C4.09668 41.5938 6.83336 44.3317 10.2182 44.3317C13.603 44.3317 16.3397 41.5938 16.3397 38.2074C16.3397 34.821 13.603 32.083 10.2182 32.083ZM10.2182 42.8907C7.62555 42.8907 5.53704 40.8012 5.53704 38.2074C5.53704 35.6135 7.62555 33.524 10.2182 33.524C12.8108 33.524 14.8994 35.6135 14.8994 38.2074C14.8994 40.8012 12.8108 42.8907 10.2182 42.8907Z" fill="white"/>
<path d="M17.0598 13.5298C17.0598 11.4403 15.3674 9.74707 13.2789 9.74707C11.1903 9.74707 9.49792 11.4403 9.49792 13.5298C9.49792 15.6192 11.1903 17.3124 13.2789 17.3124C15.3674 17.3124 17.0598 15.6192 17.0598 13.5298ZM10.9383 13.5298C10.9383 12.2328 11.9825 11.1881 13.2789 11.1881C14.5752 11.1881 15.6194 12.2328 15.6194 13.5298C15.6194 14.8267 14.5752 15.8714 13.2789 15.8714C11.9825 15.8714 10.9383 14.8267 10.9383 13.5298Z" fill="white"/>
<path d="M43.9585 0.740723H3.12438C1.68402 0.740723 0.495728 1.92957 0.495728 3.37059V6.50482V7.94585V18.033H1.93608V7.94585H45.1468V28.0121C45.1468 29.0569 44.2825 29.9215 43.2383 29.9215H27.1423V31.3625H43.2383C45.0747 31.3625 46.5871 29.8494 46.5871 28.0121V7.94585V6.50482V3.37059C46.5871 1.92957 45.3988 0.740723 43.9585 0.740723ZM1.93608 6.50482V3.37059C1.93608 2.72213 2.47622 2.18175 3.12438 2.18175H43.9225C44.5706 2.18175 45.1107 2.72213 45.1107 3.37059V6.50482H1.93608Z" fill="white"/>
<path d="M4.60108 3.55029C4.02467 3.55029 3.55634 4.01884 3.55634 4.59552C3.55634 5.1722 4.02467 5.64075 4.60108 5.64075C5.17749 5.64075 5.64582 5.1722 5.64582 4.59552C5.64582 4.01884 5.17749 3.55029 4.60108 3.55029ZM4.60108 4.99198C4.38492 4.99198 4.2048 4.81177 4.2048 4.59552C4.2048 4.37927 4.38492 4.19905 4.60108 4.19905C4.81723 4.19905 4.99736 4.37927 4.99736 4.59552C4.99736 4.81177 4.81723 4.99198 4.60108 4.99198Z" fill="white"/>
<path d="M8.4542 3.55029C7.87779 3.55029 7.40945 4.01884 7.40945 4.59552C7.40945 5.1722 7.87779 5.64075 8.4542 5.64075C9.03061 5.64075 9.49894 5.1722 9.49894 4.59552C9.49894 4.01884 9.03061 3.55029 8.4542 3.55029ZM8.4542 4.99198C8.23804 4.99198 8.05791 4.81177 8.05791 4.59552C8.05791 4.37927 8.23804 4.19905 8.4542 4.19905C8.67035 4.19905 8.85048 4.37927 8.85048 4.59552C8.85048 4.81177 8.63432 4.99198 8.4542 4.99198Z" fill="white"/>
<path d="M12.2712 3.55029C11.6947 3.55029 11.2264 4.01884 11.2264 4.59552C11.2264 5.1722 11.6947 5.64075 12.2712 5.64075C12.8476 5.64075 13.3159 5.1722 13.3159 4.59552C13.3159 4.01884 12.8476 3.55029 12.2712 3.55029ZM12.2712 4.99198C12.055 4.99198 11.8749 4.81177 11.8749 4.59552C11.8749 4.37927 12.055 4.19905 12.2712 4.19905C12.4873 4.19905 12.6674 4.37927 12.6674 4.59552C12.6674 4.81177 12.4873 4.99198 12.2712 4.99198Z" fill="white"/>
<path d="M26.4222 23.8689C28.8708 23.8689 30.9233 22.4279 32.5437 19.5818L32.5797 19.5098C32.7238 19.2576 32.6878 18.9694 32.5437 18.7532C32.4717 18.6812 32.3997 18.5371 32.3277 18.429C31.6075 17.2402 29.8791 14.4302 26.4222 14.4302C23.0014 14.4302 21.3089 17.2041 20.5528 18.357C20.4447 18.5011 20.3727 18.6452 20.3007 18.7172C20.1206 18.9694 20.1206 19.2936 20.2647 19.5458C20.3007 19.6179 20.3727 19.6899 20.4087 19.798C21.1289 20.9148 22.9293 23.8689 26.4222 23.8689ZM21.7771 19.1135C22.4252 18.0688 23.8296 15.8712 26.4222 15.8712C29.0869 15.8712 30.4552 18.1048 31.1034 19.1856C30.4912 20.2663 29.0148 22.4639 26.4222 22.4639C23.8296 22.4639 22.4252 20.3384 21.741 19.1856C21.7771 19.1495 21.7771 19.1135 21.7771 19.1135Z" fill="white"/>
<path d="M26.4221 21.2747C27.6104 21.2747 28.5827 20.302 28.5827 19.1132C28.5827 17.9244 27.6104 16.9517 26.4221 16.9517C25.2338 16.9517 24.2616 17.9244 24.2616 19.1132C24.2616 20.302 25.2338 21.2747 26.4221 21.2747ZM26.4221 18.3927C26.8182 18.3927 27.1423 18.7169 27.1423 19.1132C27.1423 19.5095 26.8182 19.8337 26.4221 19.8337C26.026 19.8337 25.7019 19.5095 25.7019 19.1132C25.7019 18.7169 26.026 18.3927 26.4221 18.3927Z" fill="white"/>
<path d="M41.8699 20.8423C42.5901 20.302 43.1303 19.5814 43.4543 18.7529C43.7784 17.9243 43.8504 17.0236 43.7064 16.123C43.4903 14.8261 42.7702 13.7093 41.6899 12.9888C40.6096 12.2322 39.3133 11.944 38.053 12.1602C36.7567 12.3763 35.6404 13.0968 34.8842 14.1776C34.164 15.2223 33.84 16.5193 34.092 17.8522C34.092 17.9243 34.128 17.9963 34.128 18.0684L34.2721 18.7889L35.6764 18.5367L35.5324 17.8162C35.5324 17.7441 35.4964 17.7081 35.4964 17.6C35.3523 16.6634 35.5324 15.7627 36.0725 15.0422C36.6126 14.2857 37.4048 13.7813 38.3051 13.6372C39.2053 13.4931 40.1415 13.6732 40.8617 14.2136C41.6179 14.754 42.122 15.5466 42.266 16.4472C42.3741 17.0596 42.3021 17.7081 42.086 18.2845C41.8699 18.8609 41.4738 19.3653 41.0057 19.7255C40.5736 20.0498 40.2495 20.4461 40.0335 20.8423C39.8174 21.2746 39.7814 21.743 39.8534 22.1753C39.9255 22.6436 39.8174 23.1119 39.5654 23.4722C39.3133 23.8685 38.8812 24.1207 38.4491 24.1927C37.981 24.2648 37.5129 24.1567 37.1528 23.9045C36.7567 23.6523 36.5046 23.22 36.4326 22.7517C36.3966 22.6076 36.3966 22.4275 36.3966 22.2473C36.8647 22.5355 37.4408 22.6076 38.017 22.4275C38.8812 22.1753 39.4573 21.3107 39.4213 20.41C39.3853 19.8336 39.1333 19.3293 38.7012 18.969C38.4851 18.7889 38.2691 18.6808 38.017 18.6087C38.017 17.9603 37.945 17.3118 37.909 17.2038C37.873 16.9155 37.909 16.6273 38.089 16.4112C38.2691 16.159 38.4851 16.0149 38.7732 15.9789C39.0612 15.9429 39.3493 15.9789 39.5654 16.159C39.8174 16.3391 39.9615 16.5553 39.9975 16.8435C40.0335 16.9876 40.0335 17.1677 39.9615 17.3118C39.9255 17.4559 39.8534 17.6 39.7454 17.7081L39.2773 18.2485L40.3576 19.1852L40.8257 18.6448C41.0777 18.3566 41.2578 18.0323 41.3298 17.6721C41.4378 17.3118 41.4378 16.9516 41.3658 16.5553C41.2578 15.9068 40.8977 15.3304 40.3216 14.9341C39.7814 14.5379 39.0973 14.3938 38.4491 14.5018C37.8009 14.6099 37.2248 14.9702 36.8287 15.5466C36.4326 16.087 36.2886 16.7714 36.3966 17.4199C36.4686 17.8882 36.5406 18.7168 36.4326 19.0771C36.3606 19.3293 36.4326 19.5454 36.6126 19.7255C36.7927 19.9057 37.0087 19.9777 37.2608 19.9417C37.4048 19.9057 37.5849 19.9417 37.6929 20.0498C37.7649 20.1218 37.873 20.2299 37.909 20.4461C37.909 20.6982 37.7649 20.9144 37.5129 20.9864C37.3328 21.0585 37.1168 21.0225 36.9727 20.8784C36.6487 20.5541 36.2165 20.41 35.8565 20.5181C35.5324 20.5902 35.2443 20.8423 35.0643 21.1666C34.7042 21.8511 34.8842 22.7517 34.9202 22.8958C35.0643 23.7244 35.5324 24.4809 36.2165 24.9493C36.7567 25.3455 37.4048 25.5257 38.053 25.5257C38.233 25.5257 38.4131 25.5257 38.5931 25.4896C39.4213 25.3455 40.1775 24.8772 40.6456 24.1927C41.1498 23.5082 41.3298 22.6436 41.1858 21.815C41.1498 21.6709 41.1858 21.4908 41.2578 21.3467C41.4378 21.2386 41.6179 21.0225 41.8699 20.8423Z" fill="white"/>
</g>
<defs>
<clipPath id="clip0_129_345">
<rect width="46.0914" height="46.1128" fill="white" transform="translate(0.495667 0.740234)"/>
</clipPath>
</defs>
</svg>
